<svg width="30" height="30" viewBox="0 0 30 30" fill="none" xmlns="http://www.w3.org/2000/svg">
<path d="M9.23992 0.919922C4.65112 0.919922 0.919922 4.65112 0.919922 9.23992V20.7599C0.919922 25.3487 4.65112 29.0799 9.23992 29.0799H20.7599C25.3487 29.0799 29.0799 25.3487 29.0799 20.7599V9.23992C29.0799 4.65112 25.3487 0.919922 20.7599 0.919922H9.23992ZM22.6799 6.03992C23.3839 6.03992 23.9599 6.61592 23.9599 7.31992C23.9599 8.02392 23.3839 8.59992 22.6799 8.59992C21.9759 8.59992 21.3999 8.02392 21.3999 7.31992C21.3999 6.61592 21.9759 6.03992 22.6799 6.03992ZM14.9999 7.95992C18.8847 7.95992 22.0399 11.1151 22.0399 14.9999C22.0399 18.8847 18.8847 22.0399 14.9999 22.0399C11.1151 22.0399 7.95992 18.8847 7.95992 14.9999C7.95992 11.1151 11.1151 7.95992 14.9999 7.95992ZM14.9999 9.23992C11.8255 9.23992 9.23992 11.8255 9.23992 14.9999C9.23992 18.1743 11.8255 20.7599 14.9999 20.7599C18.1743 20.7599 20.7599 18.1743 20.7599 14.9999C20.7599 11.8255 18.1743 9.23992 14.9999 9.23992Z" fill="white"/>
</svg>
