<svg width="50" height="50" viewBox="0 0 50 50" fill="none" xmlns="http://www.w3.org/2000/svg">
<path d="M11.9648 13.9883C12.3711 13.9805 12.7422 14.2227 12.9062 14.5938C13.0664 14.9688 12.9844 15.4023 12.6992 15.6914L4.72266 24H47.9766C48.3359 23.9961 48.6719 24.1836 48.8516 24.4961C49.0352 24.8086 49.0352 25.1914 48.8516 25.5039C48.6719 25.8164 48.3359 26.0039 47.9766 26H4.72266L12.6992 34.3086C13.082 34.707 13.0664 35.3398 12.668 35.7227C12.2695 36.1055 11.6367 36.0938 11.2539 35.6914L0.988281 25L11.2539 14.3086C11.4375 14.1094 11.6953 13.9961 11.9648 13.9883Z" fill="#F9D93D"/>
</svg>
