<svg width="32" height="32" viewBox="0 0 32 32" fill="none" xmlns="http://www.w3.org/2000/svg">
<path d="M7.65789 8.95251C7.91789 8.94751 8.15539 9.10251 8.26039 9.34001C8.36289 9.58001 8.31039 9.85751 8.12789 10.0425L3.02289 15.36H30.7054C30.9354 15.3575 31.1504 15.4775 31.2654 15.6775C31.3829 15.8775 31.3829 16.1225 31.2654 16.3225C31.1504 16.5225 30.9354 16.6425 30.7054 16.64H3.02289L8.12789 21.9575C8.37289 22.2125 8.36289 22.6175 8.10789 22.8625C7.85289 23.1075 7.44789 23.1 7.20289 22.8425L0.632891 16L7.20289 9.15751C7.32039 9.03001 7.48539 8.95751 7.65789 8.95251Z" fill="#F9D93D"/>
</svg>
