<svg width="28" height="28" viewBox="0 0 28 28" fill="none" xmlns="http://www.w3.org/2000/svg">
<path d="M24.2396 0.560059H3.75957C1.99317 0.560059 0.55957 1.99366 0.55957 3.76006V24.2401C0.55957 26.0065 1.99317 27.4401 3.75957 27.4401H24.2396C26.006 27.4401 27.4396 26.0065 27.4396 24.2401V3.76006C27.4396 1.99366 26.006 0.560059 24.2396 0.560059ZM8.87957 10.8001V22.9601H5.03957V10.8001H8.87957ZM5.03957 7.26086C5.03957 6.36486 5.80757 5.68006 6.95957 5.68006C8.11157 5.68006 8.83477 6.36486 8.87957 7.26086C8.87957 8.15686 8.16277 8.88006 6.95957 8.88006C5.80757 8.88006 5.03957 8.15686 5.03957 7.26086ZM22.9596 22.9601H19.1196C19.1196 22.9601 19.1196 17.0337 19.1196 16.5601C19.1196 15.2801 18.4796 14.0001 16.8796 13.9745H16.8284C15.2796 13.9745 14.6396 15.2929 14.6396 16.5601C14.6396 17.1425 14.6396 22.9601 14.6396 22.9601H10.7996V10.8001H14.6396V12.4385C14.6396 12.4385 15.8748 10.8001 18.358 10.8001C20.8988 10.8001 22.9596 12.5473 22.9596 16.0865V22.9601Z" fill="white"/>
</svg>
