<svg width="32" height="32" viewBox="0 0 32 32" fill="none" xmlns="http://www.w3.org/2000/svg">
<path d="M24.3421 8.95251C24.0821 8.94751 23.8446 9.10251 23.7396 9.34001C23.6371 9.58001 23.6896 9.85751 23.8721 10.0425L28.9771 15.36H1.29461C1.06461 15.3575 0.849609 15.4775 0.734609 15.6775C0.617109 15.8775 0.617109 16.1225 0.734609 16.3225C0.849609 16.5225 1.06461 16.6425 1.29461 16.64H28.9771L23.8721 21.9575C23.6271 22.2125 23.6371 22.6175 23.8921 22.8625C24.1471 23.1075 24.5521 23.1 24.7971 22.8425L31.3671 16L24.7971 9.15751C24.6796 9.03001 24.5146 8.95751 24.3421 8.95251Z" fill="#F9D93D"/>
</svg>
