<svg width="122" height="29" viewBox="0 0 122 29" fill="none" xmlns="http://www.w3.org/2000/svg">
<g clip-path="url(#clip0)">
<path d="M26.7093 28.7731H21.8152V8.74878H26.7093V28.7731Z" fill="white"/>
<path d="M54.9212 5.84172C54.5287 4.89723 53.9798 4.07848 53.2898 3.37011C52.5906 2.66788 51.7811 2.11591 50.8489 1.71726C49.9166 1.31248 48.9231 1.11316 47.8682 1.11316C46.9207 1.11316 46.0099 1.28182 45.1421 1.6222C44.2681 1.96872 43.48 2.46242 42.7809 3.11252C42.0817 2.46242 41.2936 1.96872 40.4105 1.6222C39.5365 1.28182 38.6257 1.11316 37.669 1.11316C36.611 1.11316 35.6206 1.31248 34.6883 1.71726C33.7623 2.11591 32.9466 2.66788 32.2535 3.37011C31.5605 4.07848 31.0147 4.89723 30.613 5.84172C30.2204 6.78621 30.0211 7.78895 30.0211 8.85917V28.7762H35.1238V8.85917C35.1238 8.49732 35.1882 8.15694 35.32 7.84722C35.4519 7.5375 35.6328 7.26458 35.8659 7.02846C36.0928 6.79234 36.3627 6.60835 36.6754 6.47649C36.9821 6.35076 37.3163 6.2833 37.6659 6.2833C38.0216 6.2833 38.359 6.35076 38.6656 6.47649C38.9723 6.60835 39.2421 6.79234 39.4752 7.02846C39.7082 7.26458 39.8891 7.5375 40.021 7.84722C40.1437 8.15694 40.2111 8.49732 40.2111 8.85917V28.7762H45.3199V8.85917C45.3199 8.49732 45.3843 8.15694 45.5162 7.84722C45.6481 7.5375 45.829 7.26458 46.0559 7.02846C46.289 6.79234 46.5588 6.60835 46.8716 6.47649C47.1783 6.35076 47.5064 6.2833 47.8621 6.2833C48.2178 6.2833 48.5551 6.35076 48.8618 6.47649C49.1684 6.60835 49.4383 6.79234 49.6713 7.02846C49.9044 7.26458 50.0853 7.5375 50.2264 7.84722C50.2846 7.99441 50.3368 8.1416 50.3736 8.30413H55.4977C55.4486 7.44244 55.2493 6.62368 54.9212 5.84172Z" fill="white"/>
<path d="M68.2391 10.745C67.9999 9.86802 67.6565 9.04926 67.2118 8.28263C66.7672 7.5068 66.2275 6.81377 65.608 6.17901C64.9886 5.55344 64.2956 5.01373 63.5443 4.55682C62.7868 4.10604 61.9773 3.75953 61.1156 3.51727C60.2478 3.26582 59.3431 3.14929 58.4048 3.14929H57.8436V8.3133H58.4048C59.104 8.3133 59.7694 8.45436 60.3796 8.71808C60.9991 8.991 61.5388 9.35898 62.0049 9.83122C62.4649 10.2973 62.8298 10.8493 63.0996 11.4749C63.3633 12.1004 63.5013 12.772 63.5013 13.4804C63.5013 14.1887 63.3633 14.8603 63.0996 15.4859C62.8298 16.1206 62.4649 16.6665 62.0049 17.1387C61.5388 17.6048 60.9991 17.9728 60.3796 18.2457C59.7663 18.5186 59.104 18.6505 58.4048 18.6505H55.4885V12.3182H50.3797V28.7945H55.4885V23.8022H58.4048C59.8123 23.8022 61.1309 23.5293 62.3698 22.9896C63.6087 22.4499 64.6881 21.714 65.6142 20.7756C66.5402 19.8403 67.2701 18.7394 67.8098 17.4852C68.3434 16.231 68.604 14.8971 68.604 13.4804C68.604 12.539 68.4875 11.6251 68.2391 10.745Z" fill="white"/>
<path d="M84.8412 28.7731H79.947V8.74878H84.8412V28.7731Z" fill="white"/>
<path d="M76.3531 28.7731H71.2719V1.49338H76.3531V28.7731Z" fill="white"/>
<path d="M106.156 6.79231H100.937C100.879 6.57152 100.769 6.27713 100.545 5.98888C100.195 5.5381 99.7567 5.37558 99.3856 5.20692C98.941 5.0076 98.4534 4.91254 97.9352 4.91254H97.1348C96.8067 4.94933 96.5 5.03826 96.2087 5.15479C95.7641 5.33878 95.3777 5.59637 95.0496 5.93062C94.7276 6.2618 94.467 6.65431 94.2768 7.09589C94.0867 7.5528 93.9916 8.04038 93.9916 8.56475V9.48777H98.4964V14.3819H93.9916V28.7731H89.1374V14.3819H87.4968V9.4847H89.1374V8.56168C89.1374 7.37494 89.3551 6.2618 89.7997 5.21305C90.2444 4.17351 90.8577 3.26582 91.6366 2.48386C92.4093 1.71723 93.3139 1.10393 94.3474 0.647018C95.1999 0.269837 96.1106 0.058248 97.0674 -0.00308228H97.9352C99.1004 -0.00308228 100.29 0.15331 101.311 0.601021C101.333 0.607154 101.354 0.622486 101.376 0.631686C102.382 1.08246 103.265 1.68043 104.016 2.45319C104.148 2.58505 104.271 2.72611 104.396 2.87331C104.761 3.30875 105 3.6706 105.059 3.76566C105.218 4.00791 105.519 4.47402 105.767 5.13026C105.908 5.52584 106.083 6.09314 106.156 6.79231Z" fill="white"/>
<path d="M121.56 2.94998V10.696C121.56 11.8827 121.369 13.0112 120.998 14.0876C120.618 15.1578 120.094 16.139 119.425 17.0222C118.748 17.8992 117.938 18.6597 117.006 19.3006C116.064 19.9354 115.031 20.3923 113.909 20.6867V28.77H108.821V20.6898C107.693 20.3954 106.656 19.9385 105.709 19.3037C104.767 18.6628 103.958 17.9023 103.28 17.0253C102.602 16.139 102.078 15.1578 101.707 14.0906C101.336 13.0143 101.146 11.8858 101.146 10.6991C101.13 10.3157 101.109 9.93856 101.094 9.55525C102.771 9.56138 104.448 9.56751 106.126 9.57671C106.169 9.95083 106.212 10.3249 106.255 10.6991C106.255 11.4074 106.386 12.0698 106.656 12.7046C106.92 13.3301 107.291 13.8852 107.751 14.3482C108.217 14.8204 108.757 15.1884 109.376 15.4552C110.002 15.7281 110.667 15.86 111.367 15.86C112.066 15.86 112.722 15.7281 113.351 15.4552C113.97 15.1884 114.516 14.8204 114.976 14.3482C115.442 13.8821 115.807 13.3301 116.071 12.7046C116.34 12.0698 116.472 11.4074 116.472 10.6991V2.94998H121.56Z" fill="white"/>
<path d="M24.3114 6.39982C25.6662 6.39982 26.7646 5.28912 26.7646 3.91901C26.7646 2.5489 25.6662 1.4382 24.3114 1.4382C22.9565 1.4382 21.8582 2.5489 21.8582 3.91901C21.8582 5.28912 22.9565 6.39982 24.3114 6.39982Z" fill="white"/>
<path d="M82.4554 6.39982C83.8103 6.39982 84.9086 5.28912 84.9086 3.91901C84.9086 2.5489 83.8103 1.4382 82.4554 1.4382C81.1006 1.4382 80.0022 2.5489 80.0022 3.91901C80.0022 5.28912 81.1006 6.39982 82.4554 6.39982Z" fill="white"/>
<path d="M0 9.62269C0 8.47888 0.187057 7.40253 0.564238 6.39978C0.941419 5.39704 1.45353 4.52001 2.10056 3.76565C2.74759 3.01435 3.50196 2.41945 4.36671 1.98094C5.23147 1.5455 6.15449 1.32471 7.13884 1.32471H18.0618V6.86283H7.13884C6.80766 6.86283 6.49794 6.93336 6.20969 7.07442C5.92143 7.21548 5.66998 7.41173 5.45532 7.66319C5.24067 7.91464 5.07201 8.20596 4.94935 8.54021C4.82669 8.87446 4.76536 9.23631 4.76536 9.61962C4.76536 10.006 4.82669 10.3678 4.94935 10.7082C5.07201 11.0486 5.24067 11.3461 5.45532 11.5945C5.66998 11.8459 5.92143 12.0422 6.20969 12.1832C6.49794 12.3243 6.80766 12.3948 7.13884 12.3948H11.9042C12.8885 12.3948 13.8146 12.6095 14.6855 13.0418C15.5533 13.4712 16.3138 14.063 16.9609 14.8174C17.6079 15.5687 18.117 16.4518 18.488 17.4607C18.859 18.4726 19.043 19.549 19.043 20.6928C19.043 21.8397 18.856 22.9129 18.488 23.9157C18.117 24.9184 17.6079 25.7955 16.9609 26.5498C16.3138 27.3011 15.5564 27.8991 14.6855 28.3345C13.8177 28.7731 12.8885 28.9908 11.9042 28.9908H1.3278V23.4619H11.9042C12.2354 23.4619 12.5451 23.3913 12.8334 23.2503C13.1216 23.1092 13.3731 22.913 13.5877 22.6615C13.8024 22.41 13.971 22.1187 14.0937 21.7845C14.2163 21.4502 14.2777 21.0884 14.2777 20.7051C14.2777 20.3187 14.2163 19.9599 14.0937 19.6256C13.971 19.2914 13.8024 19.0001 13.5877 18.7486C13.3731 18.4972 13.1185 18.304 12.8334 18.1599C12.5451 18.0188 12.2354 17.9483 11.9042 17.9483H7.13884C6.15449 17.9483 5.2284 17.7305 4.36671 17.292C3.50196 16.8566 2.74759 16.2586 2.10056 15.5073C1.45353 14.756 0.941419 13.8729 0.564238 12.864C0.187057 11.8459 0 10.7696 0 9.62269Z" fill="white"/>
</g>
<defs>
<clipPath id="clip0">
<rect width="121.56" height="29" fill="white"/>
</clipPath>
</defs>
</svg>
